# xmcd
#
# Track frame offsets:
#	150
#	5227
#	10485
#	15725
#	21005
#	25215
#	30172
#	44417
#	54027
#	59175
#	71205
#	86995
#	112502
#	117830
#	123575
#	130015
#	139452
#	143375
#	155620
#	164792
#	170440
#	184227
#	186687
#	200647
#	207800
#	213720
#	231784
#	248287
#	256467
#	268802
#	278010
#	281610
#	288407
#	291265
#	295872
#	310302
#	323390
#
# Disc length: 4741 seconds
#
# Revision: 0
# Processed by: cddbd v1.4PL0 Copyright (c) Steve Scherf et al.
# Submitted via: dBpowerAMP V4.0
#
DISCID=36128325
DTITLE=Daniel Kingman, author - American Music" A Panorama
DYEAR=2002
DGENRE=Blues
TTITLE0=Wonderous Love - Sacred Harp Singing Convention
TTITLE1=Tis the gift to be simple - Society of Shakers
TTITLE2=Sweet Bye and Bye - Harmonoion Singers
TTITLE3=Sweet Bye and Bye - Jarry and Jeanie West
TTITLE4=Can the circle be unbroken - A.P. Carter
TTITLE5=Brighten the corner where you are
TTITLE6=Give the world a smile - Stamps Quartet
TTITLE7=Im on a Battlefield for my Lord - Rev. Rice
TTITLE8=He got better things for you - Memphis Sing
TTITLE9=Didnt it rain - Mahalia Jackson
TTITLE10=Swing down chariot - Golden Gate Quartet
TTITLE11=I feel the spirit - Clarance Eggleton
TTITLE12=College Hornpipe
TTITLE13=Lady Hope's Reel - Trad.
TTITLE14=Washington's March - traditional
TTITLE15=Indian Princess - Chorus Adventurers
TTITLE16=Junto Song - Trad.
TTITLE17=De Boatman's Dance - Dan Emmett
TTITLE18=The Babies on our Block - Braham
TTITLE19=Yankee Doodle Boy
TTITLE20=Can't Help Lovin' - Kern
TTITLE21=Glamour Dream - Gershwin
TTITLE22=My SHip - Gershwin
TTITLE23=Fugue for Tinhorns - Loesser
TTITLE24=Great Fugue - Beethoven
TTITLE25=Cool - Bernstein
TTITLE26=Tonight - Bernstein
TTITLE27=Woodman Spare that tree
TTITLE28=Get off the track - Hutchinson
TTITLE29=Hard times come
TTITLE30=Battle cry of Freedom - Root
TTITLE31=All Quiet Along Patomac
TTITLE32=Kingdom Coming
TTITLE33=My Gal Sal - Paul Dresser
TTITLE34=Can you spare a dime
TTITLE35=You go to my head - H. Gellespie
TTITLE36=Blues in the night
EXTD=
EXTT0=
EXTT1=
EXTT2=
EXTT3=
EXTT4=
EXTT5=
EXTT6=
EXTT7=
EXTT8=
EXTT9=
EXTT10=
EXTT11=
EXTT12=
EXTT13=
EXTT14=
EXTT15=
EXTT16=
EXTT17=
EXTT18=
EXTT19=
EXTT20=
EXTT21=
EXTT22=
EXTT23=
EXTT24=
EXTT25=
EXTT26=
EXTT27=
EXTT28=
EXTT29=
EXTT30=
EXTT31=
EXTT32=
EXTT33=
EXTT34=
EXTT35=
EXTT36=
PLAYORDER=
